<?xml version="1.0" encoding="utf-8" standalone="no"?>
<!DOCTYPE svg PUBLIC "-//W3C//DTD SVG 1.1//EN"
  "http://www.w3.org/Graphics/SVG/1.1/DTD/svg11.dtd">
<!-- Created with matplotlib (http://matplotlib.org/) -->
<svg height="367pt" version="1.1" viewBox="0 0 605 367" width="605pt" xmlns="http://www.w3.org/2000/svg" xmlns:xlink="http://www.w3.org/1999/xlink">
 <defs>
  <style type="text/css">
*{stroke-linecap:butt;stroke-linejoin:round;}
  </style>
 </defs>
 <g id="figure_1">
  <g id="patch_1">
   <path d="
M0 367.717
L605.523 367.717
L605.523 0
L0 0
z
" style="fill:none;"/>
  </g>
  <g id="axes_1">
   <g id="LineCollection_1">
    <defs>
     <path d="
M487.22 -264.179
L451.251 -302.143" id="C0_0_8a7c4c7d96"/>
     <path d="
M487.22 -264.179
L501.159 -188.978" id="C0_1_e3ac1d8472"/>
     <path d="
M287.499 -227.744
L404.061 -195.725" id="C0_2_e5664e657c"/>
     <path d="
M287.499 -227.744
L308.274 -252.302" id="C0_3_f7803541f4"/>
     <path d="
M287.499 -227.744
L252.008 -163.623" id="C0_4_66918d26a9"/>
     <path d="
M287.499 -227.744
L353.556 -179.756" id="C0_5_b2a5c84ec6"/>
     <path d="
M287.499 -227.744
L204.136 -189.108" id="C0_6_3704b27428"/>
     <path d="
M308.274 -252.302
L284.099 -200.745" id="C0_7_63d383cd1d"/>
     <path d="
M308.274 -252.302
L204.136 -189.108" id="C0_8_56686bcda5"/>
     <path d="
M308.274 -252.302
L378.702 -295.837" id="C0_9_f133c3efd6"/>
     <path d="
M308.274 -252.302
L252.008 -163.623" id="C0_a_1341b59c41"/>
     <path d="
M308.274 -252.302
L404.061 -195.725" id="C0_b_eea6e68874"/>
     <path d="
M308.274 -252.302
L377.46 -227.84" id="C0_c_a9995231b9"/>
     <path d="
M159.467 -299.514
L158.956 -241.354" id="C0_d_fa408b3fb0"/>
     <path d="
M159.467 -299.514
L208.444 -225.909" id="C0_e_1851432f84"/>
     <path d="
M485.024 -131.315
L501.159 -188.978" id="C0_f_5f70e77ecc"/>
     <path d="
M485.024 -131.315
L404.061 -195.725" id="C0_10_1c0c2d9564"/>
     <path d="
M301.344 -76.6781
L366.374 -80.7822" id="C0_11_15987bac78"/>
     <path d="
M301.344 -76.6781
L353.556 -179.756" id="C0_12_36d8e4f26b"/>
     <path d="
M301.344 -76.6781
L252.008 -163.623" id="C0_13_cb2440841e"/>
     <path d="
M284.099 -200.745
L204.136 -189.108" id="C0_14_cf0b0e14ae"/>
     <path d="
M284.099 -200.745
L158.956 -241.354" id="C0_15_d825af477e"/>
     <path d="
M284.099 -200.745
L208.444 -225.909" id="C0_16_2630856f13"/>
     <path d="
M284.099 -200.745
L362.702 -130.456" id="C0_17_883239dac4"/>
     <path d="
M284.099 -200.745
L404.061 -195.725" id="C0_18_f88639325d"/>
     <path d="
M284.099 -200.745
L377.46 -227.84" id="C0_19_0b84881f8d"/>
     <path d="
M204.136 -189.108
L158.956 -241.354" id="C0_1a_f5456a6c40"/>
     <path d="
M204.136 -189.108
L353.556 -179.756" id="C0_1b_714798f1ee"/>
     <path d="
M204.136 -189.108
L208.444 -225.909" id="C0_1c_02b332d967"/>
     <path d="
M204.136 -189.108
L157.891 -108.077" id="C0_1d_f2d0b8080a"/>
     <path d="
M204.136 -189.108
L113.136 -168.295" id="C0_1e_09c12a13d2"/>
     <path d="
M115.768 -216.534
L158.956 -241.354" id="C0_1f_91791861f8"/>
     <path d="
M115.768 -216.534
L113.136 -168.295" id="C0_20_e024e7e4b8"/>
     <path d="
M115.768 -216.534
L208.444 -225.909" id="C0_21_aa00c83667"/>
     <path d="
M451.251 -302.143
L404.061 -195.725" id="C0_22_3224c2c3dd"/>
     <path d="
M451.251 -302.143
L378.702 -295.837" id="C0_23_8f9d90da26"/>
     <path d="
M501.159 -188.978
L353.556 -179.756" id="C0_24_36c21645e5"/>
     <path d="
M501.159 -188.978
L404.061 -195.725" id="C0_25_f84589212e"/>
     <path d="
M501.159 -188.978
L462.509 -165.636" id="C0_26_ac07407de3"/>
     <path d="
M501.159 -188.978
L511.708 -223.232" id="C0_27_6555d0b84a"/>
     <path d="
M158.956 -241.354
L208.444 -225.909" id="C0_28_e03eea84f0"/>
     <path d="
M158.956 -241.354
L252.008 -163.623" id="C0_29_10685f7034"/>
     <path d="
M378.702 -295.837
L377.46 -227.84" id="C0_2a_65936b760d"/>
     <path d="
M378.702 -295.837
L353.556 -179.756" id="C0_2b_f37d0bb751"/>
     <path d="
M353.556 -179.756
L252.008 -163.623" id="C0_2c_ea6f464b37"/>
     <path d="
M353.556 -179.756
L404.061 -195.725" id="C0_2d_39534dc07c"/>
     <path d="
M353.556 -179.756
L462.509 -165.636" id="C0_2e_6f99dac8bc"/>
     <path d="
M208.444 -225.909
L243.798 -107.588" id="C0_2f_0f96d9fc91"/>
     <path d="
M208.444 -225.909
L377.46 -227.84" id="C0_30_d0b404358a"/>
     <path d="
M252.008 -163.623
L243.798 -107.588" id="C0_31_2289c76a31"/>
     <path d="
M362.702 -130.456
L377.46 -227.84" id="C0_32_c2a3f4aee8"/>
     <path d="
M362.702 -130.456
L462.509 -165.636" id="C0_33_7324b8990e"/>
     <path d="
M362.702 -130.456
L243.798 -107.588" id="C0_34_55e2676a90"/>
     <path d="
M362.702 -130.456
L366.374 -80.7822" id="C0_35_536b5f4949"/>
     <path d="
M157.891 -108.077
L243.798 -107.588" id="C0_36_c13c030c4e"/>
     <path d="
M404.061 -195.725
L366.374 -80.7822" id="C0_37_e3e3d6eaf4"/>
     <path d="
M243.798 -107.588
L366.374 -80.7822" id="C0_38_813e5a43e7"/>
     <path d="
M462.509 -165.636
L377.46 -227.84" id="C0_39_d499b233bb"/>
     <path d="
M462.509 -165.636
L511.708 -223.232" id="C0_3a_9c8fd87dfc"/>
     <path d="
M511.708 -223.232
L377.46 -227.84" id="C0_3b_449447e36b"/>
    </defs>
    <g clip-path="url(#p4cbb20c70d)">
     <use style="fill:none;stroke:#1d282e;stroke-width:2.5;" x="0.0" xlink:href="#C0_0_8a7c4c7d96" y="367.7171875"/>
    </g>
    <g clip-path="url(#p4cbb20c70d)">
     <use style="fill:none;stroke:#141b1f;stroke-width:2.5;" x="0.0" xlink:href="#C0_1_e3ac1d8472" y="367.7171875"/>
    </g>
    <g clip-path="url(#p4cbb20c70d)">
     <use style="fill:none;stroke:#435b6a;stroke-width:2.5;" x="0.0" xlink:href="#C0_2_e5664e657c" y="367.7171875"/>
    </g>
    <g clip-path="url(#p4cbb20c70d)">
     <use style="fill:none;stroke:#8ea8b8;stroke-width:2.5;" x="0.0" xlink:href="#C0_3_f7803541f4" y="367.7171875"/>
    </g>
    <g clip-path="url(#p4cbb20c70d)">
     <use style="fill:none;stroke:#8fa9b9;stroke-width:2.5;" x="0.0" xlink:href="#C0_4_66918d26a9" y="367.7171875"/>
    </g>
    <g clip-path="url(#p4cbb20c70d)">
     <use style="fill:none;stroke:#6c8594;stroke-width:2.5;" x="0.0" xlink:href="#C0_5_b2a5c84ec6" y="367.7171875"/>
    </g>
    <g clip-path="url(#p4cbb20c70d)">
     <use style="fill:none;stroke:#405764;stroke-width:2.5;" x="0.0" xlink:href="#C0_6_3704b27428" y="367.7171875"/>
    </g>
    <g clip-path="url(#p4cbb20c70d)">
     <use style="fill:none;stroke:#819baa;stroke-width:2.5;" x="0.0" xlink:href="#C0_7_63d383cd1d" y="367.7171875"/>
    </g>
    <g clip-path="url(#p4cbb20c70d)">
     <use style="fill:none;stroke:#3e5461;stroke-width:2.5;" x="0.0" xlink:href="#C0_8_56686bcda5" y="367.7171875"/>
    </g>
    <g clip-path="url(#p4cbb20c70d)">
     <use style="fill:none;stroke:#445c6a;stroke-width:2.5;" x="0.0" xlink:href="#C0_9_f133c3efd6" y="367.7171875"/>
    </g>
    <g clip-path="url(#p4cbb20c70d)">
     <use style="fill:none;stroke:#829cab;stroke-width:2.5;" x="0.0" xlink:href="#C0_a_1341b59c41" y="367.7171875"/>
    </g>
    <g clip-path="url(#p4cbb20c70d)">
     <use style="fill:none;stroke:#4a6371;stroke-width:2.5;" x="0.0" xlink:href="#C0_b_eea6e68874" y="367.7171875"/>
    </g>
    <g clip-path="url(#p4cbb20c70d)">
     <use style="fill:none;stroke:#86a1b0;stroke-width:2.5;" x="0.0" xlink:href="#C0_c_a9995231b9" y="367.7171875"/>
    </g>
    <g clip-path="url(#p4cbb20c70d)">
     <use style="fill:none;stroke:#91acbb;stroke-width:2.5;" x="0.0" xlink:href="#C0_d_fa408b3fb0" y="367.7171875"/>
    </g>
    <g clip-path="url(#p4cbb20c70d)">
     <use style="fill:none;stroke:#92acbc;stroke-width:2.5;" x="0.0" xlink:href="#C0_e_1851432f84" y="367.7171875"/>
    </g>
    <g clip-path="url(#p4cbb20c70d)">
     <use style="fill:none;stroke:#5f7887;stroke-width:2.5;" x="0.0" xlink:href="#C0_f_5f70e77ecc" y="367.7171875"/>
    </g>
    <g clip-path="url(#p4cbb20c70d)">
     <use style="fill:none;stroke:#627c8a;stroke-width:2.5;" x="0.0" xlink:href="#C0_10_1c0c2d9564" y="367.7171875"/>
    </g>
    <g clip-path="url(#p4cbb20c70d)">
     <use style="fill:none;stroke:#92acbc;stroke-width:2.5;" x="0.0" xlink:href="#C0_11_15987bac78" y="367.7171875"/>
    </g>
    <g clip-path="url(#p4cbb20c70d)">
     <use style="fill:none;stroke:#839dac;stroke-width:2.5;" x="0.0" xlink:href="#C0_12_36d8e4f26b" y="367.7171875"/>
    </g>
    <g clip-path="url(#p4cbb20c70d)">
     <use style="fill:none;stroke:#7892a1;stroke-width:2.5;" x="0.0" xlink:href="#C0_13_cb2440841e" y="367.7171875"/>
    </g>
    <g clip-path="url(#p4cbb20c70d)">
     <use style="fill:none;stroke:#425967;stroke-width:2.5;" x="0.0" xlink:href="#C0_14_cf0b0e14ae" y="367.7171875"/>
    </g>
    <g clip-path="url(#p4cbb20c70d)">
     <use style="fill:none;stroke:#4b6472;stroke-width:2.5;" x="0.0" xlink:href="#C0_15_d825af477e" y="367.7171875"/>
    </g>
    <g clip-path="url(#p4cbb20c70d)">
     <use style="fill:none;stroke:#5e7786;stroke-width:2.5;" x="0.0" xlink:href="#C0_16_2630856f13" y="367.7171875"/>
    </g>
    <g clip-path="url(#p4cbb20c70d)">
     <use style="fill:none;stroke:#768f9e;stroke-width:2.5;" x="0.0" xlink:href="#C0_17_883239dac4" y="367.7171875"/>
    </g>
    <g clip-path="url(#p4cbb20c70d)">
     <use style="fill:none;stroke:#425967;stroke-width:2.5;" x="0.0" xlink:href="#C0_18_f88639325d" y="367.7171875"/>
    </g>
    <g clip-path="url(#p4cbb20c70d)">
     <use style="fill:none;stroke:#6c8695;stroke-width:2.5;" x="0.0" xlink:href="#C0_19_0b84881f8d" y="367.7171875"/>
    </g>
    <g clip-path="url(#p4cbb20c70d)">
     <use style="fill:none;stroke:#809aa9;stroke-width:2.5;" x="0.0" xlink:href="#C0_1a_f5456a6c40" y="367.7171875"/>
    </g>
    <g clip-path="url(#p4cbb20c70d)">
     <use style="fill:none;stroke:#3a4e5a;stroke-width:2.5;" x="0.0" xlink:href="#C0_1b_714798f1ee" y="367.7171875"/>
    </g>
    <g clip-path="url(#p4cbb20c70d)">
     <use style="fill:none;stroke:#6d8795;stroke-width:2.5;" x="0.0" xlink:href="#C0_1c_02b332d967" y="367.7171875"/>
    </g>
    <g clip-path="url(#p4cbb20c70d)">
     <use style="fill:none;stroke:#6c8694;stroke-width:2.5;" x="0.0" xlink:href="#C0_1d_f2d0b8080a" y="367.7171875"/>
    </g>
    <g clip-path="url(#p4cbb20c70d)">
     <use style="fill:none;stroke:#0d1215;stroke-width:2.5;" x="0.0" xlink:href="#C0_1e_09c12a13d2" y="367.7171875"/>
    </g>
    <g clip-path="url(#p4cbb20c70d)">
     <use style="fill:none;stroke:#384d58;stroke-width:2.5;" x="0.0" xlink:href="#C0_1f_91791861f8" y="367.7171875"/>
    </g>
    <g clip-path="url(#p4cbb20c70d)">
     <use style="fill:none;stroke:#212d34;stroke-width:2.5;" x="0.0" xlink:href="#C0_20_e024e7e4b8" y="367.7171875"/>
    </g>
    <g clip-path="url(#p4cbb20c70d)">
     <use style="fill:none;stroke:#364955;stroke-width:2.5;" x="0.0" xlink:href="#C0_21_aa00c83667" y="367.7171875"/>
    </g>
    <g clip-path="url(#p4cbb20c70d)">
     <use style="fill:none;stroke:#374b56;stroke-width:2.5;" x="0.0" xlink:href="#C0_22_3224c2c3dd" y="367.7171875"/>
    </g>
    <g clip-path="url(#p4cbb20c70d)">
     <use style="fill:none;stroke:#384d59;stroke-width:2.5;" x="0.0" xlink:href="#C0_23_8f9d90da26" y="367.7171875"/>
    </g>
    <g clip-path="url(#p4cbb20c70d)">
     <use style="fill:none;stroke:#3a4f5b;stroke-width:2.5;" x="0.0" xlink:href="#C0_24_36c21645e5" y="367.7171875"/>
    </g>
    <g clip-path="url(#p4cbb20c70d)">
     <use style="fill:none;stroke:#405765;stroke-width:2.5;" x="0.0" xlink:href="#C0_25_f84589212e" y="367.7171875"/>
    </g>
    <g clip-path="url(#p4cbb20c70d)">
     <use style="fill:none;stroke:#3f5663;stroke-width:2.5;" x="0.0" xlink:href="#C0_26_ac07407de3" y="367.7171875"/>
    </g>
    <g clip-path="url(#p4cbb20c70d)">
     <use style="fill:none;stroke:#435b69;stroke-width:2.5;" x="0.0" xlink:href="#C0_27_6555d0b84a" y="367.7171875"/>
    </g>
    <g clip-path="url(#p4cbb20c70d)">
     <use style="fill:none;stroke:#88a3b2;stroke-width:2.5;" x="0.0" xlink:href="#C0_28_e03eea84f0" y="367.7171875"/>
    </g>
    <g clip-path="url(#p4cbb20c70d)">
     <use style="fill:none;stroke:#4a6371;stroke-width:2.5;" x="0.0" xlink:href="#C0_29_10685f7034" y="367.7171875"/>
    </g>
    <g clip-path="url(#p4cbb20c70d)">
     <use style="fill:none;stroke:#546c7b;stroke-width:2.5;" x="0.0" xlink:href="#C0_2a_65936b760d" y="367.7171875"/>
    </g>
    <g clip-path="url(#p4cbb20c70d)">
     <use style="fill:none;stroke:#617a89;stroke-width:2.5;" x="0.0" xlink:href="#C0_2b_f37d0bb751" y="367.7171875"/>
    </g>
    <g clip-path="url(#p4cbb20c70d)">
     <use style="fill:none;stroke:#607987;stroke-width:2.5;" x="0.0" xlink:href="#C0_2c_ea6f464b37" y="367.7171875"/>
    </g>
    <g clip-path="url(#p4cbb20c70d)">
     <use style="fill:none;stroke:#6c8695;stroke-width:2.5;" x="0.0" xlink:href="#C0_2d_39534dc07c" y="367.7171875"/>
    </g>
    <g clip-path="url(#p4cbb20c70d)">
     <use style="fill:none;stroke:#758f9e;stroke-width:2.5;" x="0.0" xlink:href="#C0_2e_6f99dac8bc" y="367.7171875"/>
    </g>
    <g clip-path="url(#p4cbb20c70d)">
     <use style="fill:none;stroke:#688290;stroke-width:2.5;" x="0.0" xlink:href="#C0_2f_0f96d9fc91" y="367.7171875"/>
    </g>
    <g clip-path="url(#p4cbb20c70d)">
     <use style="fill:none;stroke:#425967;stroke-width:2.5;" x="0.0" xlink:href="#C0_30_d0b404358a" y="367.7171875"/>
    </g>
    <g clip-path="url(#p4cbb20c70d)">
     <use style="fill:none;stroke:#90abba;stroke-width:2.5;" x="0.0" xlink:href="#C0_31_2289c76a31" y="367.7171875"/>
    </g>
    <g clip-path="url(#p4cbb20c70d)">
     <use style="fill:none;stroke:#92acbc;stroke-width:2.5;" x="0.0" xlink:href="#C0_32_c2a3f4aee8" y="367.7171875"/>
    </g>
    <g clip-path="url(#p4cbb20c70d)">
     <use style="fill:none;stroke:#5e7786;stroke-width:2.5;" x="0.0" xlink:href="#C0_33_7324b8990e" y="367.7171875"/>
    </g>
    <g clip-path="url(#p4cbb20c70d)">
     <use style="fill:none;stroke:#6c8694;stroke-width:2.5;" x="0.0" xlink:href="#C0_34_55e2676a90" y="367.7171875"/>
    </g>
    <g clip-path="url(#p4cbb20c70d)">
     <use style="fill:none;stroke:#93adbd;stroke-width:2.5;" x="0.0" xlink:href="#C0_35_536b5f4949" y="367.7171875"/>
    </g>
    <g clip-path="url(#p4cbb20c70d)">
     <use style="fill:none;stroke:#698391;stroke-width:2.5;" x="0.0" xlink:href="#C0_36_c13c030c4e" y="367.7171875"/>
    </g>
    <g clip-path="url(#p4cbb20c70d)">
     <use style="fill:none;stroke:#5e7785;stroke-width:2.5;" x="0.0" xlink:href="#C0_37_e3e3d6eaf4" y="367.7171875"/>
    </g>
    <g clip-path="url(#p4cbb20c70d)">
     <use style="fill:none;stroke:#647d8c;stroke-width:2.5;" x="0.0" xlink:href="#C0_38_813e5a43e7" y="367.7171875"/>
    </g>
    <g clip-path="url(#p4cbb20c70d)">
     <use style="fill:none;stroke:#688190;stroke-width:2.5;" x="0.0" xlink:href="#C0_39_d499b233bb" y="367.7171875"/>
    </g>
    <g clip-path="url(#p4cbb20c70d)">
     <use style="fill:none;stroke:#7f99a8;stroke-width:2.5;" x="0.0" xlink:href="#C0_3a_9c8fd87dfc" y="367.7171875"/>
    </g>
    <g clip-path="url(#p4cbb20c70d)">
     <use style="fill:none;stroke:#4c6573;stroke-width:2.5;" x="0.0" xlink:href="#C0_3b_449447e36b" y="367.7171875"/>
    </g>
   </g>
   <g id="PathCollection_1">
    <defs>
     <path d="
M0 12.2474
C3.24806 12.2474 6.36353 10.957 8.66025 8.66025
C10.957 6.36353 12.2474 3.24806 12.2474 0
C12.2474 -3.24806 10.957 -6.36353 8.66025 -8.66025
C6.36353 -10.957 3.24806 -12.2474 0 -12.2474
C-3.24806 -12.2474 -6.36353 -10.957 -8.66025 -8.66025
C-10.957 -6.36353 -12.2474 -3.24806 -12.2474 0
C-12.2474 3.24806 -10.957 6.36353 -8.66025 8.66025
C-6.36353 10.957 -3.24806 12.2474 0 12.2474
z
" id="C1_0_12bfc86c35"/>
     <path d="
M0 5
C1.32602 5 2.5979 4.47317 3.53553 3.53553
C4.47317 2.5979 5 1.32602 5 0
C5 -1.32602 4.47317 -2.5979 3.53553 -3.53553
C2.5979 -4.47317 1.32602 -5 0 -5
C-1.32602 -5 -2.5979 -4.47317 -3.53553 -3.53553
C-4.47317 -2.5979 -5 -1.32602 -5 0
C-5 1.32602 -4.47317 2.5979 -3.53553 3.53553
C-2.5979 4.47317 -1.32602 5 0 5
z
" id="C1_1_95d0887793"/>
     <path d="
M0 5
C1.32602 5 2.5979 4.47317 3.53553 3.53553
C4.47317 2.5979 5 1.32602 5 0
C5 -1.32602 4.47317 -2.5979 3.53553 -3.53553
C2.5979 -4.47317 1.32602 -5 0 -5
C-1.32602 -5 -2.5979 -4.47317 -3.53553 -3.53553
C-4.47317 -2.5979 -5 -1.32602 -5 0
C-5 1.32602 -4.47317 2.5979 -3.53553 3.53553
C-2.5979 4.47317 -1.32602 5 0 5
z
" id="C1_2_95d0887793"/>
     <path d="
M0 5
C1.32602 5 2.5979 4.47317 3.53553 3.53553
C4.47317 2.5979 5 1.32602 5 0
C5 -1.32602 4.47317 -2.5979 3.53553 -3.53553
C2.5979 -4.47317 1.32602 -5 0 -5
C-1.32602 -5 -2.5979 -4.47317 -3.53553 -3.53553
C-4.47317 -2.5979 -5 -1.32602 -5 0
C-5 1.32602 -4.47317 2.5979 -3.53553 3.53553
C-2.5979 4.47317 -1.32602 5 0 5
z
" id="C1_3_95d0887793"/>
     <path d="
M0 5
C1.32602 5 2.5979 4.47317 3.53553 3.53553
C4.47317 2.5979 5 1.32602 5 0
C5 -1.32602 4.47317 -2.5979 3.53553 -3.53553
C2.5979 -4.47317 1.32602 -5 0 -5
C-1.32602 -5 -2.5979 -4.47317 -3.53553 -3.53553
C-4.47317 -2.5979 -5 -1.32602 -5 0
C-5 1.32602 -4.47317 2.5979 -3.53553 3.53553
C-2.5979 4.47317 -1.32602 5 0 5
z
" id="C1_4_95d0887793"/>
     <path d="
M0 5
C1.32602 5 2.5979 4.47317 3.53553 3.53553
C4.47317 2.5979 5 1.32602 5 0
C5 -1.32602 4.47317 -2.5979 3.53553 -3.53553
C2.5979 -4.47317 1.32602 -5 0 -5
C-1.32602 -5 -2.5979 -4.47317 -3.53553 -3.53553
C-4.47317 -2.5979 -5 -1.32602 -5 0
C-5 1.32602 -4.47317 2.5979 -3.53553 3.53553
C-2.5979 4.47317 -1.32602 5 0 5
z
" id="C1_5_95d0887793"/>
     <path d="
M0 5
C1.32602 5 2.5979 4.47317 3.53553 3.53553
C4.47317 2.5979 5 1.32602 5 0
C5 -1.32602 4.47317 -2.5979 3.53553 -3.53553
C2.5979 -4.47317 1.32602 -5 0 -5
C-1.32602 -5 -2.5979 -4.47317 -3.53553 -3.53553
C-4.47317 -2.5979 -5 -1.32602 -5 0
C-5 1.32602 -4.47317 2.5979 -3.53553 3.53553
C-2.5979 4.47317 -1.32602 5 0 5
z
" id="C1_6_95d0887793"/>
     <path d="
M0 5
C1.32602 5 2.5979 4.47317 3.53553 3.53553
C4.47317 2.5979 5 1.32602 5 0
C5 -1.32602 4.47317 -2.5979 3.53553 -3.53553
C2.5979 -4.47317 1.32602 -5 0 -5
C-1.32602 -5 -2.5979 -4.47317 -3.53553 -3.53553
C-4.47317 -2.5979 -5 -1.32602 -5 0
C-5 1.32602 -4.47317 2.5979 -3.53553 3.53553
C-2.5979 4.47317 -1.32602 5 0 5
z
" id="C1_7_95d0887793"/>
     <path d="
M0 5
C1.32602 5 2.5979 4.47317 3.53553 3.53553
C4.47317 2.5979 5 1.32602 5 0
C5 -1.32602 4.47317 -2.5979 3.53553 -3.53553
C2.5979 -4.47317 1.32602 -5 0 -5
C-1.32602 -5 -2.5979 -4.47317 -3.53553 -3.53553
C-4.47317 -2.5979 -5 -1.32602 -5 0
C-5 1.32602 -4.47317 2.5979 -3.53553 3.53553
C-2.5979 4.47317 -1.32602 5 0 5
z
" id="C1_8_95d0887793"/>
     <path d="
M0 5
C1.32602 5 2.5979 4.47317 3.53553 3.53553
C4.47317 2.5979 5 1.32602 5 0
C5 -1.32602 4.47317 -2.5979 3.53553 -3.53553
C2.5979 -4.47317 1.32602 -5 0 -5
C-1.32602 -5 -2.5979 -4.47317 -3.53553 -3.53553
C-4.47317 -2.5979 -5 -1.32602 -5 0
C-5 1.32602 -4.47317 2.5979 -3.53553 3.53553
C-2.5979 4.47317 -1.32602 5 0 5
z
" id="C1_9_95d0887793"/>
     <path d="
M0 5
C1.32602 5 2.5979 4.47317 3.53553 3.53553
C4.47317 2.5979 5 1.32602 5 0
C5 -1.32602 4.47317 -2.5979 3.53553 -3.53553
C2.5979 -4.47317 1.32602 -5 0 -5
C-1.32602 -5 -2.5979 -4.47317 -3.53553 -3.53553
C-4.47317 -2.5979 -5 -1.32602 -5 0
C-5 1.32602 -4.47317 2.5979 -3.53553 3.53553
C-2.5979 4.47317 -1.32602 5 0 5
z
" id="C1_a_95d0887793"/>
     <path d="
M0 5
C1.32602 5 2.5979 4.47317 3.53553 3.53553
C4.47317 2.5979 5 1.32602 5 0
C5 -1.32602 4.47317 -2.5979 3.53553 -3.53553
C2.5979 -4.47317 1.32602 -5 0 -5
C-1.32602 -5 -2.5979 -4.47317 -3.53553 -3.53553
C-4.47317 -2.5979 -5 -1.32602 -5 0
C-5 1.32602 -4.47317 2.5979 -3.53553 3.53553
C-2.5979 4.47317 -1.32602 5 0 5
z
" id="C1_b_95d0887793"/>
     <path d="
M0 5
C1.32602 5 2.5979 4.47317 3.53553 3.53553
C4.47317 2.5979 5 1.32602 5 0
C5 -1.32602 4.47317 -2.5979 3.53553 -3.53553
C2.5979 -4.47317 1.32602 -5 0 -5
C-1.32602 -5 -2.5979 -4.47317 -3.53553 -3.53553
C-4.47317 -2.5979 -5 -1.32602 -5 0
C-5 1.32602 -4.47317 2.5979 -3.53553 3.53553
C-2.5979 4.47317 -1.32602 5 0 5
z
" id="C1_c_95d0887793"/>
     <path d="
M0 5
C1.32602 5 2.5979 4.47317 3.53553 3.53553
C4.47317 2.5979 5 1.32602 5 0
C5 -1.32602 4.47317 -2.5979 3.53553 -3.53553
C2.5979 -4.47317 1.32602 -5 0 -5
C-1.32602 -5 -2.5979 -4.47317 -3.53553 -3.53553
C-4.47317 -2.5979 -5 -1.32602 -5 0
C-5 1.32602 -4.47317 2.5979 -3.53553 3.53553
C-2.5979 4.47317 -1.32602 5 0 5
z
" id="C1_d_95d0887793"/>
     <path d="
M0 5
C1.32602 5 2.5979 4.47317 3.53553 3.53553
C4.47317 2.5979 5 1.32602 5 0
C5 -1.32602 4.47317 -2.5979 3.53553 -3.53553
C2.5979 -4.47317 1.32602 -5 0 -5
C-1.32602 -5 -2.5979 -4.47317 -3.53553 -3.53553
C-4.47317 -2.5979 -5 -1.32602 -5 0
C-5 1.32602 -4.47317 2.5979 -3.53553 3.53553
C-2.5979 4.47317 -1.32602 5 0 5
z
" id="C1_e_95d0887793"/>
     <path d="
M0 5
C1.32602 5 2.5979 4.47317 3.53553 3.53553
C4.47317 2.5979 5 1.32602 5 0
C5 -1.32602 4.47317 -2.5979 3.53553 -3.53553
C2.5979 -4.47317 1.32602 -5 0 -5
C-1.32602 -5 -2.5979 -4.47317 -3.53553 -3.53553
C-4.47317 -2.5979 -5 -1.32602 -5 0
C-5 1.32602 -4.47317 2.5979 -3.53553 3.53553
C-2.5979 4.47317 -1.32602 5 0 5
z
" id="C1_f_95d0887793"/>
     <path d="
M0 5
C1.32602 5 2.5979 4.47317 3.53553 3.53553
C4.47317 2.5979 5 1.32602 5 0
C5 -1.32602 4.47317 -2.5979 3.53553 -3.53553
C2.5979 -4.47317 1.32602 -5 0 -5
C-1.32602 -5 -2.5979 -4.47317 -3.53553 -3.53553
C-4.47317 -2.5979 -5 -1.32602 -5 0
C-5 1.32602 -4.47317 2.5979 -3.53553 3.53553
C-2.5979 4.47317 -1.32602 5 0 5
z
" id="C1_10_95d0887793"/>
     <path d="
M0 5
C1.32602 5 2.5979 4.47317 3.53553 3.53553
C4.47317 2.5979 5 1.32602 5 0
C5 -1.32602 4.47317 -2.5979 3.53553 -3.53553
C2.5979 -4.47317 1.32602 -5 0 -5
C-1.32602 -5 -2.5979 -4.47317 -3.53553 -3.53553
C-4.47317 -2.5979 -5 -1.32602 -5 0
C-5 1.32602 -4.47317 2.5979 -3.53553 3.53553
C-2.5979 4.47317 -1.32602 5 0 5
z
" id="C1_11_95d0887793"/>
     <path d="
M0 5
C1.32602 5 2.5979 4.47317 3.53553 3.53553
C4.47317 2.5979 5 1.32602 5 0
C5 -1.32602 4.47317 -2.5979 3.53553 -3.53553
C2.5979 -4.47317 1.32602 -5 0 -5
C-1.32602 -5 -2.5979 -4.47317 -3.53553 -3.53553
C-4.47317 -2.5979 -5 -1.32602 -5 0
C-5 1.32602 -4.47317 2.5979 -3.53553 3.53553
C-2.5979 4.47317 -1.32602 5 0 5
z
" id="C1_12_95d0887793"/>
     <path d="
M0 5
C1.32602 5 2.5979 4.47317 3.53553 3.53553
C4.47317 2.5979 5 1.32602 5 0
C5 -1.32602 4.47317 -2.5979 3.53553 -3.53553
C2.5979 -4.47317 1.32602 -5 0 -5
C-1.32602 -5 -2.5979 -4.47317 -3.53553 -3.53553
C-4.47317 -2.5979 -5 -1.32602 -5 0
C-5 1.32602 -4.47317 2.5979 -3.53553 3.53553
C-2.5979 4.47317 -1.32602 5 0 5
z
" id="C1_13_95d0887793"/>
     <path d="
M0 12.2474
C3.24806 12.2474 6.36353 10.957 8.66025 8.66025
C10.957 6.36353 12.2474 3.24806 12.2474 0
C12.2474 -3.24806 10.957 -6.36353 8.66025 -8.66025
C6.36353 -10.957 3.24806 -12.2474 0 -12.2474
C-3.24806 -12.2474 -6.36353 -10.957 -8.66025 -8.66025
C-10.957 -6.36353 -12.2474 -3.24806 -12.2474 0
C-12.2474 3.24806 -10.957 6.36353 -8.66025 8.66025
C-6.36353 10.957 -3.24806 12.2474 0 12.2474
z
" id="C1_14_12bfc86c35"/>
     <path d="
M0 5
C1.32602 5 2.5979 4.47317 3.53553 3.53553
C4.47317 2.5979 5 1.32602 5 0
C5 -1.32602 4.47317 -2.5979 3.53553 -3.53553
C2.5979 -4.47317 1.32602 -5 0 -5
C-1.32602 -5 -2.5979 -4.47317 -3.53553 -3.53553
C-4.47317 -2.5979 -5 -1.32602 -5 0
C-5 1.32602 -4.47317 2.5979 -3.53553 3.53553
C-2.5979 4.47317 -1.32602 5 0 5
z
" id="C1_15_95d0887793"/>
     <path d="
M0 5
C1.32602 5 2.5979 4.47317 3.53553 3.53553
C4.47317 2.5979 5 1.32602 5 0
C5 -1.32602 4.47317 -2.5979 3.53553 -3.53553
C2.5979 -4.47317 1.32602 -5 0 -5
C-1.32602 -5 -2.5979 -4.47317 -3.53553 -3.53553
C-4.47317 -2.5979 -5 -1.32602 -5 0
C-5 1.32602 -4.47317 2.5979 -3.53553 3.53553
C-2.5979 4.47317 -1.32602 5 0 5
z
" id="C1_16_95d0887793"/>
     <path d="
M0 5
C1.32602 5 2.5979 4.47317 3.53553 3.53553
C4.47317 2.5979 5 1.32602 5 0
C5 -1.32602 4.47317 -2.5979 3.53553 -3.53553
C2.5979 -4.47317 1.32602 -5 0 -5
C-1.32602 -5 -2.5979 -4.47317 -3.53553 -3.53553
C-4.47317 -2.5979 -5 -1.32602 -5 0
C-5 1.32602 -4.47317 2.5979 -3.53553 3.53553
C-2.5979 4.47317 -1.32602 5 0 5
z
" id="C1_17_95d0887793"/>
     <path d="
M0 5
C1.32602 5 2.5979 4.47317 3.53553 3.53553
C4.47317 2.5979 5 1.32602 5 0
C5 -1.32602 4.47317 -2.5979 3.53553 -3.53553
C2.5979 -4.47317 1.32602 -5 0 -5
C-1.32602 -5 -2.5979 -4.47317 -3.53553 -3.53553
C-4.47317 -2.5979 -5 -1.32602 -5 0
C-5 1.32602 -4.47317 2.5979 -3.53553 3.53553
C-2.5979 4.47317 -1.32602 5 0 5
z
" id="C1_18_95d0887793"/>
    </defs>
    <g clip-path="url(#p4cbb20c70d)">
     <use style="fill:#65abd0;stroke:#000000;" x="487.219627239" xlink:href="#C1_0_12bfc86c35" y="103.538533923"/>
    </g>
    <g clip-path="url(#p4cbb20c70d)">
     <use style="fill:#a0cbe2;stroke:#000000;" x="287.499109977" xlink:href="#C1_1_95d0887793" y="139.973023582"/>
    </g>
    <g clip-path="url(#p4cbb20c70d)">
     <use style="fill:#a0cbe2;stroke:#000000;" x="308.273614598" xlink:href="#C1_2_95d0887793" y="115.415032811"/>
    </g>
    <g clip-path="url(#p4cbb20c70d)">
     <use style="fill:#a0cbe2;stroke:#000000;" x="159.467424036" xlink:href="#C1_3_95d0887793" y="68.2031912655"/>
    </g>
    <g clip-path="url(#p4cbb20c70d)">
     <use style="fill:#a0cbe2;stroke:#000000;" x="485.024067621" xlink:href="#C1_4_95d0887793" y="236.40220265"/>
    </g>
    <g clip-path="url(#p4cbb20c70d)">
     <use style="fill:#a0cbe2;stroke:#000000;" x="301.343895732" xlink:href="#C1_5_95d0887793" y="291.0390625"/>
    </g>
    <g clip-path="url(#p4cbb20c70d)">
     <use style="fill:#a0cbe2;stroke:#000000;" x="284.099381668" xlink:href="#C1_6_95d0887793" y="166.972117382"/>
    </g>
    <g clip-path="url(#p4cbb20c70d)">
     <use style="fill:#a0cbe2;stroke:#000000;" x="204.135609261" xlink:href="#C1_7_95d0887793" y="178.609303932"/>
    </g>
    <g clip-path="url(#p4cbb20c70d)">
     <use style="fill:#a0cbe2;stroke:#000000;" x="115.768093603" xlink:href="#C1_8_95d0887793" y="151.183329535"/>
    </g>
    <g clip-path="url(#p4cbb20c70d)">
     <use style="fill:#a0cbe2;stroke:#000000;" x="451.251238878" xlink:href="#C1_9_95d0887793" y="65.5742573796"/>
    </g>
    <g clip-path="url(#p4cbb20c70d)">
     <use style="fill:#a0cbe2;stroke:#000000;" x="501.158607514" xlink:href="#C1_a_95d0887793" y="178.7394435"/>
    </g>
    <g clip-path="url(#p4cbb20c70d)">
     <use style="fill:#a0cbe2;stroke:#000000;" x="158.955975807" xlink:href="#C1_b_95d0887793" y="126.363518514"/>
    </g>
    <g clip-path="url(#p4cbb20c70d)">
     <use style="fill:#a0cbe2;stroke:#000000;" x="378.702356377" xlink:href="#C1_c_95d0887793" y="71.8802901244"/>
    </g>
    <g clip-path="url(#p4cbb20c70d)">
     <use style="fill:#a0cbe2;stroke:#000000;" x="353.556091231" xlink:href="#C1_d_95d0887793" y="187.96161786"/>
    </g>
    <g clip-path="url(#p4cbb20c70d)">
     <use style="fill:#a0cbe2;stroke:#000000;" x="208.444361984" xlink:href="#C1_e_95d0887793" y="141.808569007"/>
    </g>
    <g clip-path="url(#p4cbb20c70d)">
     <use style="fill:#a0cbe2;stroke:#000000;" x="252.008022279" xlink:href="#C1_f_95d0887793" y="204.094461867"/>
    </g>
    <g clip-path="url(#p4cbb20c70d)">
     <use style="fill:#a0cbe2;stroke:#000000;" x="362.701976741" xlink:href="#C1_10_95d0887793" y="237.261136103"/>
    </g>
    <g clip-path="url(#p4cbb20c70d)">
     <use style="fill:#a0cbe2;stroke:#000000;" x="157.891443123" xlink:href="#C1_11_95d0887793" y="259.640162752"/>
    </g>
    <g clip-path="url(#p4cbb20c70d)">
     <use style="fill:#a0cbe2;stroke:#000000;" x="404.060791245" xlink:href="#C1_12_95d0887793" y="171.99226696"/>
    </g>
    <g clip-path="url(#p4cbb20c70d)">
     <use style="fill:#a0cbe2;stroke:#000000;" x="243.798289735" xlink:href="#C1_13_95d0887793" y="260.12894197"/>
    </g>
    <g clip-path="url(#p4cbb20c70d)">
     <use style="fill:#65abd0;stroke:#000000;" x="113.136160714" xlink:href="#C1_14_12bfc86c35" y="199.422362402"/>
    </g>
    <g clip-path="url(#p4cbb20c70d)">
     <use style="fill:#a0cbe2;stroke:#000000;" x="366.37351646" xlink:href="#C1_15_95d0887793" y="286.934980928"/>
    </g>
    <g clip-path="url(#p4cbb20c70d)">
     <use style="fill:#a0cbe2;stroke:#000000;" x="462.508915652" xlink:href="#C1_16_95d0887793" y="202.080855073"/>
    </g>
    <g clip-path="url(#p4cbb20c70d)">
     <use style="fill:#a0cbe2;stroke:#000000;" x="511.707589286" xlink:href="#C1_17_95d0887793" y="144.484914164"/>
    </g>
    <g clip-path="url(#p4cbb20c70d)">
     <use style="fill:#a0cbe2;stroke:#000000;" x="377.460381986" xlink:href="#C1_18_95d0887793" y="139.877596322"/>
    </g>
   </g>
   <g id="text_1">
    <g clip-path="url(#p4cbb20c70d)">
     <!-- t -->
     <defs>
      <path d="
M18.3125 70.2188
L18.3125 54.6875
L36.8125 54.6875
L36.8125 47.7031
L18.3125 47.7031
L18.3125 18.0156
Q18.3125 11.3281 20.1406 9.42188
Q21.9688 7.51562 27.5938 7.51562
L36.8125 7.51562
L36.8125 0
L27.5938 0
Q17.1875 0 13.2344 3.875
Q9.28125 7.76562 9.28125 18.0156
L9.28125 47.7031
L2.6875 47.7031
L2.6875 54.6875
L9.28125 54.6875
L9.28125 70.2188
z
" id="BitstreamVeraSans-Roman-74"/>
     </defs>
     <g transform="translate(484.148377239 108.505408923)scale(0.18 -0.18)">
      <use xlink:href="#BitstreamVeraSans-Roman-74"/>
     </g>
    </g>
   </g>
   <g id="text_2">
    <g clip-path="url(#p4cbb20c70d)">
     <!-- s -->
     <defs>
      <path d="
M44.2812 53.0781
L44.2812 44.5781
Q40.4844 46.5312 36.375 47.5
Q32.2812 48.4844 27.875 48.4844
Q21.1875 48.4844 17.8438 46.4375
Q14.5 44.3906 14.5 40.2812
Q14.5 37.1562 16.8906 35.375
Q19.2812 33.5938 26.5156 31.9844
L29.5938 31.2969
Q39.1562 29.25 43.1875 25.5156
Q47.2188 21.7812 47.2188 15.0938
Q47.2188 7.46875 41.1875 3.01562
Q35.1562 -1.42188 24.6094 -1.42188
Q20.2188 -1.42188 15.4531 -0.5625
Q10.6875 0.296875 5.42188 2
L5.42188 11.2812
Q10.4062 8.6875 15.2344 7.39062
Q20.0625 6.10938 24.8125 6.10938
Q31.1562 6.10938 34.5625 8.28125
Q37.9844 10.4531 37.9844 14.4062
Q37.9844 18.0625 35.5156 20.0156
Q33.0625 21.9688 24.7031 23.7812
L21.5781 24.5156
Q13.2344 26.2656 9.51562 29.9062
Q5.8125 33.5469 5.8125 39.8906
Q5.8125 47.6094 11.2812 51.7969
Q16.75 56 26.8125 56
Q31.7812 56 36.1719 55.2656
Q40.5781 54.5469 44.2812 53.0781" id="BitstreamVeraSans-Roman-73"/>
     </defs>
     <g transform="translate(109.374441964 204.389237402)scale(0.18 -0.18)">
      <use xlink:href="#BitstreamVeraSans-Roman-73"/>
     </g>
    </g>
   </g>
  </g>
 </g>
 <defs>
  <clipPath id="p4cbb20c70d">
   <rect height="334.8" width="558.0" x="33.421875" y="12.0390625"/>
  </clipPath>
 </defs>
</svg>
